<?xml version="1.0" encoding="UTF-8" standalone="no"?>
<svg
   version="1.0"
   width="3000px"
   height="3000px"
   viewBox="0 0 3000 3000"
   preserveAspectRatio="xMidYMid meet"
   id="svg1"
   sodipodi:docname="tamagotchi-pcb-outline-ink.svg"
   inkscape:version="1.4.3 (0d15f75, 2025-12-25)"
   xmlns:inkscape="http://www.inkscape.org/namespaces/inkscape"
   xmlns:sodipodi="http://sodipodi.sourceforge.net/DTD/sodipodi-0.dtd"
   xmlns="http://www.w3.org/2000/svg"
   xmlns:svg="http://www.w3.org/2000/svg">
  <defs
     id="defs1" />
  <sodipodi:namedview
     id="namedview1"
     pagecolor="#ffffff"
     bordercolor="#000000"
     borderopacity="0.25"
     inkscape:showpageshadow="2"
     inkscape:pageopacity="0.0"
     inkscape:pagecheckerboard="0"
     inkscape:deskcolor="#d1d1d1"
     inkscape:zoom="0.12403092"
     inkscape:cx="1539.9386"
     inkscape:cy="2144.6265"
     inkscape:window-width="1027"
     inkscape:window-height="757"
     inkscape:window-x="443"
     inkscape:window-y="96"
     inkscape:window-maximized="0"
     inkscape:current-layer="svg1" />
  <g
     fill="#000000"
     id="g1">
    <path
       d="M1373 2660.9 c-358.9 -12.8 -671.9 -110.6 -875 -273.4 -46.5 -37.3 -89.4 -80.4 -122.2 -122.7 -56.9 -73.3 -93.4 -154.2 -107.3 -237.3 -4.5 -27 -5.7 -40.8 -6.2 -73 -0.6 -33.3 0.6 -54 4.8 -81.9 16.2 -110.6 69.7 -222.2 156.3 -326.5 7.5 -9 13.6 -16.4 13.6 -16.5 0 0 -2.2 -9 -5 -19.8 -23.9 -95.4 -22.2 -220.2 4.6 -348.8 27 -129.3 77.2 -254.8 141 -352.8 4.1 -6.2 7.4 -11.7 7.4 -12.1 0 -0.5 -2.5 -4.9 -5.6 -9.7 -22 -35.2 -37.3 -78.2 -42.9 -120.7 -8.8 -67.9 7.7 -139.8 45.3 -196.7 12.5 -19 23.4 -32.3 39.7 -48.5 50.1 -49.9 115.1 -80.3 189.5 -88.6 13.6 -1.5 51.5 -1.5 65 0 61.4 7 115.9 28.2 162.5 63.1 17 12.8 28.3 23 29.1 26.2 0.8 3.8 2.4 3.7 18.1 -1.7 123.1 -41.7 309.3 -75.7 414.3 -75.7 105 0 291.2 34 414.3 75.7 15.7 5.4 17.3 5.5 18.1 1.7 0.8 -3.2 12.1 -13.4 29.1 -26.2 46.6 -34.9 101.1 -56.1 162.5 -63.1 13.5 -1.5 51.4 -1.5 65 0 74.4 8.3 139.4 38.7 189.5 88.6 24.3 24.1 42.3 49.1 57 79 32.7 66.4 39.1 139.4 18.5 211.6 -7 24.5 -20.1 54 -33.4 75.3 -3.1 4.8 -5.6 9.2 -5.6 9.7 0 0.4 3.3 5.9 7.4 12.1 132.5 203.4 195 504.7 145.6 701.6 -2.8 10.8 -5 19.8 -5 19.8 0 0.1 6.1 7.5 13.6 16.5 46.1 55.5 86.7 119.5 111.3 175.1 28 63.3 43.2 120.8 48.7 183.8 2 23 1.5 73.1 -1 94 -12.7 107.6 -55.4 201.3 -133.3 292.7 -15 17.5 -52.5 55.3 -70.8 71.3 -143.5 125 -343.6 214.5 -587 262.4 -100.3 19.8 -206.4 31.5 -321.5 35.6 -31.6 1.1 -217.9 1.1 -250 -0.1z m242.5 -17 c432.9 -13 796.5 -151 981.2 -372.4 96.7 -115.9 138.3 -250.3 120.3 -388.5 -14.9 -113.8 -71 -229.7 -162.7 -336.3 -10.5 -12.2 -10.7 -12.9 -7.4 -23.8 16.2 -53 23.7 -126.9 20.1 -199.4 -5.3 -107.6 -28.3 -216.3 -68.4 -323.4 -25.4 -67.7 -61.5 -139 -97 -191.6 -4.5 -6.6 -4.7 -7.3 -4.4 -12.7 0.3 -4.3 1.2 -7 3.8 -11 8.8 -13.9 11.8 -19.2 17.6 -30.8 14.7 -29.6 23.4 -58.1 28 -92 2.3 -16.8 2.3 -50 0 -66.8 -7.9 -59.2 -33.1 -112.8 -72.5 -154.7 -45.2 -48.2 -104 -78.7 -172.2 -89.7 -12.7 -2 -17.9 -2.3 -44.4 -2.3 -32 0 -37.5 0.5 -62.5 5.5 -50.4 10.1 -97.9 33 -137.7 66.5 -5.4 4.5 -12.2 10.7 -15.1 13.8 -6 6.4 -7.9 7.7 -11.8 7.7 -1.4 0 -12.4 -3.2 -24.3 -7.1 -130.2 -42.5 -300.6 -73.3 -406.1 -73.3 -105.5 0 -275.9 30.8 -406.1 73.3 -11.9 3.9 -22.9 7.1 -24.3 7.1 -3.9 0 -5.8 -1.3 -11.8 -7.7 -2.9 -3.1 -9.7 -9.3 -15.1 -13.8 -39.8 -33.5 -87.3 -56.4 -137.7 -66.5 -25 -5 -30.5 -5.5 -62.5 -5.5 -26.5 0 -31.7 0.3 -44.4 2.3 -68.2 11 -127 41.5 -172.2 89.7 -39.4 41.9 -64.6 95.5 -72.5 154.7 -2.3 16.8 -2.3 50 0 66.8 4.6 33.9 13.3 62.4 28 92 5.8 11.6 8.8 16.9 17.6 30.8 2.6 4 3.5 6.7 3.8 11 0.3 5.4 0.1 6.1 -4.4 12.7 -35.5 52.6 -71.6 123.9 -97 191.6 -40.1 107.1 -63.1 215.8 -68.4 323.4 -3.6 72.5 3.9 146.4 20.1 199.4 3.3 10.9 3.1 11.6 -7.4 23.8 -125.5 145.8 -182.6 306.5 -163.1 458.8 21.6 168.8 135.4 322.3 323.4 436.2 200.4 121.5 473.7 192.9 773.5 202.2 36.7 1.1 198.8 1.2 236 0z"
       id="path1" />
  </g>
</svg>
